<?xml version="1.0" encoding="UTF-8"?>
<svg xmlns="http://www.w3.org/2000/svg" xmlns:xlink="http://www.w3.org/1999/xlink" width="396" height="252" viewBox="0 0 396 252">
<defs>
<g>
<g id="glyph-0-0">
<path d="M 5.296875 -4.578125 C 5.28125 -5.8125 4.46875 -6.515625 3 -6.515625 C 1.53125 -6.515625 0.5625 -5.75 0.5625 -4.578125 C 0.5625 -3.59375 1.078125 -3.125 2.578125 -2.75 L 3.515625 -2.53125 C 4.21875 -2.359375 4.5 -2.109375 4.5 -1.65625 C 4.5 -1.046875 3.90625 -0.65625 3.03125 -0.65625 C 2.484375 -0.65625 2.015625 -0.8125 1.765625 -1.078125 C 1.609375 -1.25 1.53125 -1.4375 1.46875 -1.890625 L 0.40625 -1.890625 C 0.453125 -0.421875 1.28125 0.28125 2.9375 0.28125 C 4.53125 0.28125 5.546875 -0.515625 5.546875 -1.734375 C 5.546875 -2.671875 5.015625 -3.1875 3.765625 -3.5 L 2.796875 -3.71875 C 1.96875 -3.921875 1.625 -4.1875 1.625 -4.625 C 1.625 -5.21875 2.140625 -5.59375 2.96875 -5.59375 C 3.765625 -5.59375 4.203125 -5.234375 4.234375 -4.578125 Z M 5.296875 -4.578125 "/>
</g>
<g id="glyph-0-1">
<path d="M 3.078125 -6.34375 L 2.03125 -6.34375 L 2.03125 -8.078125 L 1.03125 -8.078125 L 1.03125 -6.34375 L 0.171875 -6.34375 L 0.171875 -5.515625 L 1.03125 -5.515625 L 1.03125 -0.71875 C 1.03125 -0.078125 1.46875 0.28125 2.25 0.28125 C 2.515625 0.28125 2.734375 0.25 3.078125 0.1875 L 3.078125 -0.65625 C 2.921875 -0.609375 2.796875 -0.609375 2.59375 -0.609375 C 2.15625 -0.609375 2.03125 -0.71875 2.03125 -1.171875 L 2.03125 -5.515625 L 3.078125 -5.515625 Z M 3.078125 -6.34375 "/>
</g>
<g id="glyph-0-2">
<path d="M 6.46875 -0.59375 C 6.359375 -0.5625 6.3125 -0.5625 6.25 -0.5625 C 5.90625 -0.5625 5.703125 -0.75 5.703125 -1.0625 L 5.703125 -4.796875 C 5.703125 -5.90625 4.890625 -6.515625 3.328125 -6.515625 C 2.390625 -6.515625 1.65625 -6.25 1.21875 -5.78125 C 0.9375 -5.453125 0.8125 -5.09375 0.78125 -4.46875 L 1.796875 -4.46875 C 1.890625 -5.234375 2.34375 -5.59375 3.296875 -5.59375 C 4.203125 -5.59375 4.703125 -5.25 4.703125 -4.640625 L 4.703125 -4.375 C 4.6875 -3.9375 4.46875 -3.78125 3.65625 -3.671875 C 2.21875 -3.5 2 -3.453125 1.625 -3.296875 C 0.890625 -2.96875 0.515625 -2.421875 0.515625 -1.59375 C 0.515625 -0.453125 1.3125 0.28125 2.59375 0.28125 C 3.390625 0.28125 4.03125 0 4.734375 -0.65625 C 4.8125 0 5.125 0.28125 5.78125 0.28125 C 6 0.28125 6.125 0.25 6.46875 0.171875 Z M 4.703125 -2 C 4.703125 -1.65625 4.609375 -1.453125 4.3125 -1.171875 C 3.890625 -0.796875 3.390625 -0.609375 2.8125 -0.609375 C 2.015625 -0.609375 1.5625 -0.984375 1.5625 -1.625 C 1.5625 -2.28125 2 -2.625 3.078125 -2.78125 C 4.15625 -2.921875 4.359375 -2.96875 4.703125 -3.125 Z M 4.703125 -2 "/>
</g>
<g id="glyph-0-3">
<path d="M 0.828125 -6.34375 L 0.828125 0 L 1.84375 0 L 1.84375 -3.296875 C 1.859375 -4.8125 2.484375 -5.484375 3.875 -5.453125 L 3.875 -6.484375 C 3.71875 -6.5 3.609375 -6.515625 3.5 -6.515625 C 2.84375 -6.515625 2.34375 -6.125 1.765625 -5.1875 L 1.765625 -6.34375 Z M 0.828125 -6.34375 "/>
</g>
<g id="glyph-0-4">
</g>
<g id="glyph-0-5">
<path d="M 0.65625 2.640625 L 1.671875 2.640625 L 1.671875 -0.671875 C 2.203125 -0.015625 2.796875 0.28125 3.609375 0.28125 C 5.265625 0.28125 6.328125 -1.046875 6.328125 -3.0625 C 6.328125 -5.1875 5.28125 -6.515625 3.609375 -6.515625 C 2.75 -6.515625 2.0625 -6.125 1.578125 -5.375 L 1.578125 -6.34375 L 0.65625 -6.34375 Z M 3.4375 -5.578125 C 4.546875 -5.578125 5.265625 -4.59375 5.265625 -3.078125 C 5.265625 -1.640625 4.53125 -0.671875 3.4375 -0.671875 C 2.359375 -0.671875 1.671875 -1.625 1.671875 -3.125 C 1.671875 -4.609375 2.359375 -5.578125 3.4375 -5.578125 Z M 3.4375 -5.578125 "/>
</g>
<g id="glyph-0-6">
<path d="M 5.703125 -4.203125 C 5.640625 -4.828125 5.515625 -5.21875 5.265625 -5.578125 C 4.84375 -6.171875 4.078125 -6.515625 3.1875 -6.515625 C 1.46875 -6.515625 0.375 -5.15625 0.375 -3.0625 C 0.375 -1.015625 1.46875 0.28125 3.1875 0.28125 C 4.6875 0.28125 5.640625 -0.625 5.765625 -2.171875 L 4.75 -2.171875 C 4.578125 -1.15625 4.0625 -0.65625 3.203125 -0.65625 C 2.09375 -0.65625 1.421875 -1.5625 1.421875 -3.0625 C 1.421875 -4.640625 2.078125 -5.59375 3.1875 -5.59375 C 4.03125 -5.59375 4.5625 -5.09375 4.6875 -4.203125 Z M 5.703125 -4.203125 "/>
</g>
<g id="glyph-0-7">
<path d="M 3.296875 -6.515625 C 1.5 -6.515625 0.4375 -5.25 0.4375 -3.125 C 0.4375 -0.984375 1.5 0.28125 3.296875 0.28125 C 5.09375 0.28125 6.171875 -0.984375 6.171875 -3.078125 C 6.171875 -5.265625 5.125 -6.515625 3.296875 -6.515625 Z M 3.296875 -5.59375 C 4.4375 -5.59375 5.109375 -4.65625 5.109375 -3.078125 C 5.109375 -1.578125 4.421875 -0.65625 3.296875 -0.65625 C 2.171875 -0.65625 1.484375 -1.578125 1.484375 -3.125 C 1.484375 -4.65625 2.171875 -5.59375 3.296875 -5.59375 Z M 3.296875 -5.59375 "/>
</g>
<g id="glyph-0-8">
<path d="M 0.84375 -6.34375 L 0.84375 0 L 1.859375 0 L 1.859375 -3.5 C 1.859375 -4.796875 2.546875 -5.640625 3.578125 -5.640625 C 4.375 -5.640625 4.890625 -5.15625 4.890625 -4.390625 L 4.890625 0 L 5.890625 0 L 5.890625 -4.796875 C 5.890625 -5.84375 5.109375 -6.515625 3.875 -6.515625 C 2.9375 -6.515625 2.328125 -6.15625 1.78125 -5.265625 L 1.78125 -6.34375 Z M 0.84375 -6.34375 "/>
</g>
<g id="glyph-0-9">
<path d="M 5.984375 -8.8125 L 4.984375 -8.8125 L 4.984375 -5.53125 C 4.5625 -6.1875 3.875 -6.515625 3.03125 -6.515625 C 1.390625 -6.515625 0.3125 -5.203125 0.3125 -3.1875 C 0.3125 -1.046875 1.359375 0.28125 3.078125 0.28125 C 3.9375 0.28125 4.546875 -0.046875 5.09375 -0.828125 L 5.09375 0 L 5.984375 0 Z M 3.203125 -5.578125 C 4.296875 -5.578125 4.984375 -4.625 4.984375 -3.09375 C 4.984375 -1.625 4.28125 -0.671875 3.21875 -0.671875 C 2.109375 -0.671875 1.359375 -1.640625 1.359375 -3.125 C 1.359375 -4.59375 2.109375 -5.578125 3.203125 -5.578125 Z M 3.203125 -5.578125 "/>
</g>
<g id="glyph-0-10">
<path d="M 3.03125 -8.8125 L 0.78125 -8.8125 L 0.78125 2.5625 L 3.03125 2.5625 L 3.03125 1.6875 L 1.78125 1.6875 L 1.78125 -7.953125 L 3.03125 -7.953125 Z M 3.03125 -8.8125 "/>
</g>
<g id="glyph-0-11">
<path d="M 5.828125 0 L 5.828125 -6.34375 L 4.828125 -6.34375 L 4.828125 -2.75 C 4.828125 -1.453125 4.140625 -0.609375 3.09375 -0.609375 C 2.296875 -0.609375 1.796875 -1.09375 1.796875 -1.84375 L 1.796875 -6.34375 L 0.78125 -6.34375 L 0.78125 -1.453125 C 0.78125 -0.40625 1.578125 0.28125 2.8125 0.28125 C 3.734375 0.28125 4.328125 -0.046875 4.921875 -0.890625 L 4.921875 0 Z M 5.828125 0 "/>
</g>
<g id="glyph-0-12">
<path d="M 6.203125 -2.828125 C 6.203125 -3.796875 6.125 -4.375 5.953125 -4.84375 C 5.53125 -5.890625 4.578125 -6.515625 3.390625 -6.515625 C 1.625 -6.515625 0.484375 -5.171875 0.484375 -3.078125 C 0.484375 -0.984375 1.578125 0.28125 3.359375 0.28125 C 4.8125 0.28125 5.8125 -0.546875 6.078125 -1.921875 L 5.0625 -1.921875 C 4.78125 -1.09375 4.203125 -0.65625 3.390625 -0.65625 C 2.75 -0.65625 2.21875 -0.9375 1.875 -1.46875 C 1.625 -1.84375 1.546875 -2.203125 1.53125 -2.828125 Z M 1.5625 -3.65625 C 1.640625 -4.828125 2.359375 -5.59375 3.375 -5.59375 C 4.40625 -5.59375 5.109375 -4.796875 5.109375 -3.65625 Z M 1.5625 -3.65625 "/>
</g>
<g id="glyph-0-13">
<path d="M 0.28125 2.5625 L 2.53125 2.5625 L 2.53125 -8.8125 L 0.28125 -8.8125 L 0.28125 -7.953125 L 1.53125 -7.953125 L 1.53125 1.6875 L 0.28125 1.6875 Z M 0.28125 2.5625 "/>
</g>
<g id="glyph-0-14">
<path d="M 3.4375 -3.765625 L 0.5625 -3.765625 L 0.5625 -2.90625 L 3.4375 -2.90625 Z M 3.4375 -3.765625 "/>
</g>
<g id="glyph-0-15">
<path d="M 3.125 -6.234375 L 3.125 0 L 4.203125 0 L 4.203125 -8.75 L 3.5 -8.75 C 3.125 -7.40625 2.875 -7.21875 1.234375 -7 L 1.234375 -6.234375 Z M 3.125 -6.234375 "/>
</g>
<g id="glyph-0-16">
<path d="M 5.75 -8.578125 L 1.328125 -8.578125 L 0.6875 -3.90625 L 1.671875 -3.90625 C 2.171875 -4.5 2.578125 -4.703125 3.25 -4.703125 C 4.40625 -4.703125 5.109375 -3.921875 5.109375 -2.65625 C 5.109375 -1.421875 4.40625 -0.671875 3.234375 -0.671875 C 2.3125 -0.671875 1.734375 -1.140625 1.484375 -2.109375 L 0.421875 -2.109375 C 0.5625 -1.40625 0.6875 -1.0625 0.9375 -0.75 C 1.421875 -0.09375 2.296875 0.28125 3.265625 0.28125 C 5 0.28125 6.203125 -0.984375 6.203125 -2.796875 C 6.203125 -4.484375 5.078125 -5.640625 3.4375 -5.640625 C 2.828125 -5.640625 2.34375 -5.484375 1.84375 -5.125 L 2.1875 -7.515625 L 5.75 -7.515625 Z M 5.75 -8.578125 "/>
</g>
<g id="glyph-0-17">
<path d="M 3.328125 -8.75 C 2.53125 -8.75 1.796875 -8.375 1.359375 -7.78125 C 0.796875 -7.015625 0.515625 -5.859375 0.515625 -4.234375 C 0.515625 -1.28125 1.484375 0.28125 3.328125 0.28125 C 5.140625 0.28125 6.125 -1.28125 6.125 -4.15625 C 6.125 -5.859375 5.859375 -6.984375 5.296875 -7.78125 C 4.84375 -8.390625 4.140625 -8.75 3.328125 -8.75 Z M 3.328125 -7.796875 C 4.46875 -7.796875 5.046875 -6.625 5.046875 -4.25 C 5.046875 -1.765625 4.484375 -0.609375 3.296875 -0.609375 C 2.171875 -0.609375 1.609375 -1.8125 1.609375 -4.21875 C 1.609375 -6.625 2.171875 -7.796875 3.328125 -7.796875 Z M 3.328125 -7.796875 "/>
</g>
<g id="glyph-1-0">
<path d="M 8.734375 -6.640625 C 8.359375 -8.75 7.140625 -9.78125 5.03125 -9.78125 C 3.734375 -9.78125 2.6875 -9.375 1.984375 -8.578125 C 1.109375 -7.625 0.640625 -6.265625 0.640625 -4.703125 C 0.640625 -3.109375 1.125 -1.75 2.015625 -0.8125 C 2.765625 -0.046875 3.71875 0.296875 4.984375 0.296875 C 7.328125 0.296875 8.640625 -0.96875 8.9375 -3.515625 L 7.671875 -3.515625 C 7.5625 -2.859375 7.4375 -2.40625 7.234375 -2.015625 C 6.84375 -1.234375 6.015625 -0.78125 4.984375 -0.78125 C 3.078125 -0.78125 1.859375 -2.3125 1.859375 -4.71875 C 1.859375 -7.1875 3.015625 -8.703125 4.890625 -8.703125 C 5.671875 -8.703125 6.390625 -8.46875 6.78125 -8.09375 C 7.140625 -7.765625 7.34375 -7.375 7.484375 -6.640625 Z M 8.734375 -6.640625 "/>
</g>
<g id="glyph-1-1">
<path d="M 3.59375 -7.109375 C 1.640625 -7.109375 0.46875 -5.734375 0.46875 -3.40625 C 0.46875 -1.0625 1.640625 0.296875 3.609375 0.296875 C 5.5625 0.296875 6.734375 -1.078125 6.734375 -3.359375 C 6.734375 -5.75 5.59375 -7.109375 3.59375 -7.109375 Z M 3.609375 -6.09375 C 4.84375 -6.09375 5.578125 -5.078125 5.578125 -3.359375 C 5.578125 -1.734375 4.8125 -0.71875 3.609375 -0.71875 C 2.375 -0.71875 1.625 -1.734375 1.625 -3.40625 C 1.625 -5.078125 2.375 -6.09375 3.609375 -6.09375 Z M 3.609375 -6.09375 "/>
</g>
<g id="glyph-1-2">
<path d="M 6.765625 -3.09375 C 6.765625 -4.140625 6.6875 -4.78125 6.5 -5.296875 C 6.046875 -6.4375 4.984375 -7.109375 3.703125 -7.109375 C 1.765625 -7.109375 0.53125 -5.65625 0.53125 -3.359375 C 0.53125 -1.078125 1.71875 0.296875 3.671875 0.296875 C 5.25 0.296875 6.34375 -0.59375 6.625 -2.09375 L 5.515625 -2.09375 C 5.21875 -1.1875 4.59375 -0.71875 3.703125 -0.71875 C 3.015625 -0.71875 2.421875 -1.03125 2.046875 -1.609375 C 1.78125 -2 1.6875 -2.40625 1.671875 -3.09375 Z M 1.703125 -3.984375 C 1.796875 -5.265625 2.578125 -6.09375 3.6875 -6.09375 C 4.8125 -6.09375 5.578125 -5.234375 5.578125 -3.984375 Z M 1.703125 -3.984375 "/>
</g>
<g id="glyph-1-3">
<path d="M 3.40625 -6.921875 L 2.25 -6.921875 L 2.25 -8 C 2.25 -8.46875 2.515625 -8.703125 3.03125 -8.703125 C 3.109375 -8.703125 3.15625 -8.703125 3.40625 -8.6875 L 3.40625 -9.59375 C 3.15625 -9.65625 3.015625 -9.671875 2.78125 -9.671875 C 1.765625 -9.671875 1.15625 -9.078125 1.15625 -8.09375 L 1.15625 -6.921875 L 0.234375 -6.921875 L 0.234375 -6.015625 L 1.15625 -6.015625 L 1.15625 0 L 2.25 0 L 2.25 -6.015625 L 3.40625 -6.015625 Z M 7.078125 -6.921875 L 5.921875 -6.921875 L 5.921875 -8 C 5.921875 -8.46875 6.171875 -8.703125 6.6875 -8.703125 C 6.78125 -8.703125 6.828125 -8.703125 7.078125 -8.6875 L 7.078125 -9.59375 C 6.828125 -9.65625 6.6875 -9.671875 6.453125 -9.671875 C 5.4375 -9.671875 4.828125 -9.078125 4.828125 -8.09375 L 4.828125 -6.921875 L 3.90625 -6.921875 L 3.90625 -6.015625 L 4.828125 -6.015625 L 4.828125 0 L 5.921875 0 L 5.921875 -6.015625 L 7.078125 -6.015625 Z M 9.328125 -6.921875 L 8.21875 -6.921875 L 8.21875 0 L 9.328125 0 Z M 9.328125 -9.625 L 8.21875 -9.625 L 8.21875 -8.234375 L 9.328125 -8.234375 Z M 9.328125 -9.625 "/>
</g>
<g id="glyph-1-4">
<path d="M 6.21875 -4.59375 C 6.171875 -5.265625 6.015625 -5.703125 5.75 -6.09375 C 5.28125 -6.734375 4.453125 -7.109375 3.484375 -7.109375 C 1.609375 -7.109375 0.40625 -5.640625 0.40625 -3.34375 C 0.40625 -1.109375 1.59375 0.296875 3.46875 0.296875 C 5.125 0.296875 6.171875 -0.6875 6.296875 -2.375 L 5.1875 -2.375 C 5 -1.265625 4.4375 -0.71875 3.5 -0.71875 C 2.28125 -0.71875 1.5625 -1.703125 1.5625 -3.34375 C 1.5625 -5.0625 2.265625 -6.09375 3.46875 -6.09375 C 4.390625 -6.09375 4.984375 -5.5625 5.109375 -4.59375 Z M 6.21875 -4.59375 "/>
</g>
<g id="glyph-1-5">
<path d="M 1.984375 -6.921875 L 0.890625 -6.921875 L 0.890625 0 L 1.984375 0 Z M 1.984375 -9.625 L 0.875 -9.625 L 0.875 -8.234375 L 1.984375 -8.234375 Z M 1.984375 -9.625 "/>
</g>
<g id="glyph-1-6">
<path d="M 0.921875 -6.921875 L 0.921875 0 L 2.03125 0 L 2.03125 -3.8125 C 2.03125 -5.234375 2.765625 -6.15625 3.90625 -6.15625 C 4.78125 -6.15625 5.328125 -5.625 5.328125 -4.796875 L 5.328125 0 L 6.4375 0 L 6.4375 -5.234375 C 6.4375 -6.375 5.578125 -7.109375 4.234375 -7.109375 C 3.203125 -7.109375 2.546875 -6.71875 1.9375 -5.75 L 1.9375 -6.921875 Z M 0.921875 -6.921875 "/>
</g>
<g id="glyph-1-7">
<path d="M 3.359375 -6.921875 L 2.21875 -6.921875 L 2.21875 -8.8125 L 1.125 -8.8125 L 1.125 -6.921875 L 0.1875 -6.921875 L 0.1875 -6.015625 L 1.125 -6.015625 L 1.125 -0.796875 C 1.125 -0.078125 1.59375 0.296875 2.453125 0.296875 C 2.75 0.296875 2.984375 0.28125 3.359375 0.21875 L 3.359375 -0.71875 C 3.1875 -0.671875 3.046875 -0.65625 2.828125 -0.65625 C 2.34375 -0.65625 2.21875 -0.796875 2.21875 -1.28125 L 2.21875 -6.015625 L 3.359375 -6.015625 Z M 3.359375 -6.921875 "/>
</g>
</g>
<clipPath id="clip-0">
<path clip-rule="nonzero" d="M 79.4375 5.480469 L 390.519531 5.480469 L 390.519531 190.835938 L 79.4375 190.835938 Z M 79.4375 5.480469 "/>
</clipPath>
<clipPath id="clip-1">
<path clip-rule="nonzero" d="M 340 5.480469 L 342 5.480469 L 342 190.835938 L 340 190.835938 Z M 340 5.480469 "/>
</clipPath>
</defs>
<rect x="-39.6" y="-25.2" width="475.2" height="302.4" fill="rgb(100%, 100%, 100%)" fill-opacity="1"/>
<rect x="-39.6" y="-25.2" width="475.2" height="302.4" fill="rgb(100%, 100%, 100%)" fill-opacity="1"/>
<path fill="none" stroke-width="1.066978" stroke-linecap="round" stroke-linejoin="round" stroke="rgb(100%, 100%, 100%)" stroke-opacity="1" stroke-miterlimit="10" d="M 0 252 L 396 252 L 396 0 L 0 0 Z M 0 252 "/>
<g clip-path="url(#clip-0)">
<path fill-rule="nonzero" fill="rgb(100%, 100%, 100%)" fill-opacity="1" d="M 79.4375 190.835938 L 390.519531 190.835938 L 390.519531 5.480469 L 79.4375 5.480469 Z M 79.4375 190.835938 "/>
</g>
<g clip-path="url(#clip-1)">
<path fill="none" stroke-width="1.066978" stroke-linecap="butt" stroke-linejoin="round" stroke="rgb(0%, 0%, 0%)" stroke-opacity="1" stroke-dasharray="1.066978 3.200935" stroke-miterlimit="10" d="M 340.722656 190.835938 L 340.722656 5.480469 "/>
</g>
<path fill="none" stroke-width="1.707165" stroke-linecap="butt" stroke-linejoin="round" stroke="rgb(95.686275%, 26.27451%, 21.176471%)" stroke-opacity="1" stroke-miterlimit="10" d="M 376.378906 56.03125 L 376.378906 56.03125 "/>
<path fill="none" stroke-width="1.707165" stroke-linecap="butt" stroke-linejoin="round" stroke="rgb(95.686275%, 26.27451%, 21.176471%)" stroke-opacity="1" stroke-miterlimit="10" d="M 376.378906 56.03125 L 93.578125 56.03125 "/>
<path fill="none" stroke-width="1.707165" stroke-linecap="butt" stroke-linejoin="round" stroke="rgb(95.686275%, 26.27451%, 21.176471%)" stroke-opacity="1" stroke-miterlimit="10" d="M 93.578125 56.03125 L 93.578125 56.03125 "/>
<path fill="none" stroke-width="1.707165" stroke-linecap="butt" stroke-linejoin="round" stroke="rgb(12.941176%, 58.823529%, 95.294118%)" stroke-opacity="1" stroke-miterlimit="10" d="M 347.230469 140.285156 L 347.230469 140.285156 "/>
<path fill="none" stroke-width="1.707165" stroke-linecap="butt" stroke-linejoin="round" stroke="rgb(12.941176%, 58.823529%, 95.294118%)" stroke-opacity="1" stroke-miterlimit="10" d="M 347.230469 140.285156 L 337.957031 140.285156 "/>
<path fill="none" stroke-width="1.707165" stroke-linecap="butt" stroke-linejoin="round" stroke="rgb(12.941176%, 58.823529%, 95.294118%)" stroke-opacity="1" stroke-miterlimit="10" d="M 337.957031 140.285156 L 337.957031 140.285156 "/>
<path fill-rule="nonzero" fill="rgb(95.686275%, 26.27451%, 21.176471%)" fill-opacity="1" stroke-width="0.708661" stroke-linecap="round" stroke-linejoin="round" stroke="rgb(95.686275%, 26.27451%, 21.176471%)" stroke-opacity="1" stroke-miterlimit="10" d="M 238.75 56.03125 C 238.75 61.054688 231.210938 61.054688 231.210938 56.03125 C 231.210938 51.007812 238.75 51.007812 238.75 56.03125 "/>
<path fill-rule="nonzero" fill="rgb(12.941176%, 58.823529%, 95.294118%)" fill-opacity="1" stroke-width="0.708661" stroke-linecap="round" stroke-linejoin="round" stroke="rgb(12.941176%, 58.823529%, 95.294118%)" stroke-opacity="1" stroke-miterlimit="10" d="M 346.363281 140.285156 C 346.363281 145.308594 338.828125 145.308594 338.828125 140.285156 C 338.828125 135.257812 346.363281 135.257812 346.363281 140.285156 "/>
<path fill="none" stroke-width="1.066978" stroke-linecap="square" stroke-linejoin="round" stroke="rgb(0%, 0%, 0%)" stroke-opacity="1" stroke-miterlimit="10" d="M 79.4375 190.835938 L 79.4375 5.480469 "/>
<g fill="rgb(0%, 0%, 0%)" fill-opacity="1">
<use xlink:href="#glyph-0-0" x="31.480469" y="144.605469"/>
<use xlink:href="#glyph-0-1" x="37.480469" y="144.605469"/>
<use xlink:href="#glyph-0-2" x="40.480469" y="144.605469"/>
<use xlink:href="#glyph-0-3" x="47.480469" y="144.605469"/>
<use xlink:href="#glyph-0-1" x="51.480469" y="144.605469"/>
<use xlink:href="#glyph-0-4" x="54.480469" y="144.605469"/>
<use xlink:href="#glyph-0-5" x="57.480469" y="144.605469"/>
<use xlink:href="#glyph-0-3" x="64.480469" y="144.605469"/>
</g>
<g fill="rgb(0%, 0%, 0%)" fill-opacity="1">
<use xlink:href="#glyph-0-6" x="5.480469" y="60.351562"/>
<use xlink:href="#glyph-0-7" x="11.480469" y="60.351562"/>
<use xlink:href="#glyph-0-8" x="18.480469" y="60.351562"/>
<use xlink:href="#glyph-0-9" x="25.480469" y="60.351562"/>
<use xlink:href="#glyph-0-4" x="32.480469" y="60.351562"/>
<use xlink:href="#glyph-0-10" x="35.480469" y="60.351562"/>
<use xlink:href="#glyph-0-11" x="38.480469" y="60.351562"/>
<use xlink:href="#glyph-0-0" x="45.480469" y="60.351562"/>
<use xlink:href="#glyph-0-12" x="51.480469" y="60.351562"/>
<use xlink:href="#glyph-0-9" x="58.480469" y="60.351562"/>
<use xlink:href="#glyph-0-13" x="65.480469" y="60.351562"/>
</g>
<path fill="none" stroke-width="1.066978" stroke-linecap="square" stroke-linejoin="round" stroke="rgb(0%, 0%, 0%)" stroke-opacity="1" stroke-miterlimit="10" d="M 79.4375 190.835938 L 390.519531 190.835938 "/>
<g fill="rgb(0%, 0%, 0%)" fill-opacity="1">
<use xlink:href="#glyph-0-14" x="85.382812" y="210.613281"/>
<use xlink:href="#glyph-0-15" x="89.382812" y="210.613281"/>
<use xlink:href="#glyph-0-16" x="96.382812" y="210.613281"/>
</g>
<g fill="rgb(0%, 0%, 0%)" fill-opacity="1">
<use xlink:href="#glyph-0-14" x="167.496094" y="210.613281"/>
<use xlink:href="#glyph-0-15" x="171.496094" y="210.613281"/>
<use xlink:href="#glyph-0-17" x="178.496094" y="210.613281"/>
</g>
<g fill="rgb(0%, 0%, 0%)" fill-opacity="1">
<use xlink:href="#glyph-0-14" x="253.109375" y="210.613281"/>
<use xlink:href="#glyph-0-16" x="257.109375" y="210.613281"/>
</g>
<g fill="rgb(0%, 0%, 0%)" fill-opacity="1">
<use xlink:href="#glyph-0-17" x="337.222656" y="210.613281"/>
</g>
<g fill="rgb(0%, 0%, 0%)" fill-opacity="1">
<use xlink:href="#glyph-1-0" x="203.980469" y="243.141602"/>
<use xlink:href="#glyph-1-1" x="213.980469" y="243.141602"/>
<use xlink:href="#glyph-1-2" x="220.980469" y="243.141602"/>
<use xlink:href="#glyph-1-3" x="227.980469" y="243.141602"/>
<use xlink:href="#glyph-1-4" x="237.980469" y="243.141602"/>
<use xlink:href="#glyph-1-5" x="244.980469" y="243.141602"/>
<use xlink:href="#glyph-1-2" x="247.980469" y="243.141602"/>
<use xlink:href="#glyph-1-6" x="254.980469" y="243.141602"/>
<use xlink:href="#glyph-1-7" x="261.980469" y="243.141602"/>
</g>
</svg>
